<?xml version="1.0" encoding="UTF-8" standalone="no"?>
<!DOCTYPE svg PUBLIC "-//W3C//DTD SVG 1.1//EN" "http://www.w3.org/Graphics/SVG/1.1/DTD/svg11.dtd">
<svg width="100%" height="100%" viewBox="0 0 360 361" version="1.1" xmlns="http://www.w3.org/2000/svg" xmlns:xlink="http://www.w3.org/1999/xlink" xml:space="preserve" xmlns:serif="http://www.serif.com/" style="fill-rule:evenodd;clip-rule:evenodd;stroke-linejoin:round;stroke-miterlimit:2;">
    <g transform="matrix(1,0,0,1,0,-418)">
        <g id="_4" serif:id="4" transform="matrix(1,0,0,1,0,418.667)">
            <rect x="0" y="0" width="360" height="360" style="fill:none;"/>
            <g transform="matrix(0.725042,0,0,0.725042,9.33333,34.6667)">
                <path d="M464,368L384,368L384,232C384,227.582 387.582,224 392,224L456,224C460.418,224 464,227.582 464,232L464,368ZM464,392C464,396.418 460.418,400 456,400L392,400C387.582,400 384,396.418 384,392L384,384L464,384L464,392ZM368,232L368,240L192,240L192,184C191.973,180.204 191.034,176.47 189.264,173.112C189.384,173 189.544,172.968 189.656,172.848L268.856,93.648C271.926,90.47 271.838,85.406 268.66,82.336C265.559,79.342 260.644,79.342 257.544,82.336L178.344,161.536C178.152,161.736 178.072,161.992 177.904,162.2C174.8,160.76 171.421,160.01 168,160L48,160L48,40C48,26.746 58.745,16 72,16L408,16C421.255,16 432,26.746 432,40L432,208L392,208C378.745,208 368,218.745 368,232ZM368,304L192,304L192,256L368,256L368,304ZM224,368L224,320L256,320L256,368L224,368ZM192,368L192,320L208,320L208,368L192,368ZM296,384C306.168,384.012 315.229,390.418 318.632,400L190.528,400C191.475,397.438 191.973,394.732 192,392L192,384L296,384ZM176,368L16,368L16,184C16,179.582 19.581,176 24,176L168,176C172.418,176 176,179.582 176,184L176,368ZM176,392C176,396.418 172.418,400 168,400L24,400C19.581,400 16,396.418 16,392L16,384L176,384L176,392ZM456,208L448,208L448,40C447.974,17.92 430.08,0.027 408,0L72,0C49.919,0.027 32.026,17.92 32,40L32,160L24,160C10.745,160 0,170.745 0,184L0,392C0,405.255 10.745,416 24,416L328,416C332.418,416 336,412.418 336,408C335.974,385.92 318.08,368.026 296,368L272,368L272,320L368,320L368,392C368,405.255 378.745,416 392,416L456,416C469.255,416 480,405.255 480,392L480,232C480,218.745 469.255,208 456,208Z" style="fill:rgb(10,5,11);fill-rule:nonzero;"/>
            </g>
            <g transform="matrix(0.725042,0,0,0.725042,9.33333,34.6667)">
                <path d="M95.592,257.376C92.468,254.253 87.404,254.253 84.28,257.376L50.344,291.312C47.166,294.382 47.078,299.446 50.147,302.624C53.217,305.802 58.282,305.89 61.459,302.82C61.526,302.756 61.591,302.691 61.656,302.624L95.592,268.688C97.02,266.213 94.149,261.508 95.592,257.376Z" style="fill:rgb(252,191,55);fill-rule:nonzero;"/>
            </g>
            <g transform="matrix(0.725042,0,0,0.725042,9.33333,34.6667)">
                <path d="M132.28,257.376L98.344,291.312C95.166,294.382 95.078,299.446 98.147,302.624C101.217,305.802 106.282,305.89 109.46,302.82C109.526,302.756 109.592,302.691 109.656,302.624L143.592,268.688C146.661,265.51 146.574,260.447 143.396,257.376C140.295,254.382 135.38,254.382 132.28,257.376Z" style="fill:rgb(252,191,55);fill-rule:nonzero;"/>
            </g>
            <g transform="matrix(0.725042,0,0,0.725042,9.33333,34.6667)">
                <path d="M306.344,82.344L227.144,161.544C223.966,164.613 223.878,169.678 226.947,172.856C230.017,176.034 235.081,176.122 238.259,173.053C238.326,172.988 238.392,172.923 238.456,172.856L317.656,93.656C320.725,90.478 320.638,85.414 317.46,82.344C314.359,79.35 309.444,79.35 306.344,82.344Z" style="fill:rgb(10,5,11);fill-rule:nonzero;"/>
            </g>
            <g transform="matrix(0.725042,0,0,0.725042,9.33333,34.6667)">
                <path d="M429.656,279.032L407.032,301.656C403.854,304.726 403.766,309.79 406.836,312.968C409.906,316.146 414.97,316.234 418.148,313.164C418.215,313.1 418.28,313.034 418.344,312.968L440.968,290.344C444.038,287.166 443.95,282.102 440.772,279.032C437.672,276.037 432.756,276.037 429.656,279.032Z" style="fill:rgb(252,191,55);fill-rule:nonzero;"/>
            </g>
            <g transform="matrix(0.725042,0,0,0.725042,9.33333,34.6667)">
                <path d="M240.16,288C244.578,288 248.16,284.418 248.16,280C248.16,275.582 244.578,272 240.16,272L240.08,272C235.662,272.022 232.098,275.622 232.12,280.04C232.142,284.458 235.742,288.022 240.16,288Z" style="fill:rgb(252,191,55);fill-rule:nonzero;"/>
            </g>
            <g transform="matrix(0.725042,0,0,0.725042,9.33333,34.6667)">
                <path d="M256,32L224,32C219.582,32 216,35.582 216,40C216,44.419 219.582,48 224,48L256,48C260.418,48 264,44.419 264,40C264,35.582 260.418,32 256,32Z" style="fill:rgb(252,191,55);fill-rule:nonzero;"/>
            </g>
        </g>
    </g>
</svg>
