<?xml version="1.0" encoding="UTF-8" standalone="no"?>
<!DOCTYPE svg PUBLIC "-//W3C//DTD SVG 1.1//EN" "http://www.w3.org/Graphics/SVG/1.1/DTD/svg11.dtd">
<svg width="100%" height="100%" viewBox="0 0 360 361" version="1.1" xmlns="http://www.w3.org/2000/svg" xmlns:xlink="http://www.w3.org/1999/xlink" xml:space="preserve" xmlns:serif="http://www.serif.com/" style="fill-rule:evenodd;clip-rule:evenodd;stroke-linejoin:round;stroke-miterlimit:2;">
    <g transform="matrix(1,0,0,1,-442,-843)">
        <g id="_8" serif:id="8" transform="matrix(1,0,0,1,442,843.52)">
            <rect x="0" y="0" width="360" height="360" style="fill:none;"/>
            <g transform="matrix(0.914815,0,0,0.914815,12.6667,10)">
                <g>
                    <clipPath id="_clip1">
                        <rect x="0" y="0" width="360" height="360"/>
                    </clipPath>
                    <g clip-path="url(#_clip1)">
                        <path d="M336,132C336,128.688 333.312,126 330,126L228,126L228,30C228,26.688 225.312,24 222,24C215.969,24.031 209.949,24.555 204,25.559L204,6C204,2.688 201.312,0 198,0L54,0C52.41,0.012 50.883,0.637 49.738,1.738L1.738,49.738C0.637,50.883 0.012,52.41 0,54L0,354C0,357.312 2.688,360 6,360L198,360C201.312,360 204,357.312 204,354L204,250.441C209.949,251.445 215.969,251.969 222,252C284.938,251.945 335.945,200.938 336,138C336,136.379 335.941,134.762 335.879,133.141C335.953,132.766 335.992,132.383 336,132ZM216,36.18L216,129.539L143.039,202.5C118.781,172.844 113.199,132.086 128.59,97C143.984,61.91 177.75,38.414 216,36.18ZM48,20.461L48,48L20.46,48L48,20.461ZM192,348L12,348L12,60L54,60C57.312,60 60,57.312 60,54L60,12L192,12L192,28.141C142.414,41.605 107.992,86.617 107.992,138C107.992,189.383 142.414,234.395 192,247.86L192,348ZM222,240C195.559,240 170.16,229.691 151.199,211.262L224.461,138L324,138C323.922,194.301 278.301,239.922 222,240Z" style="fill-rule:nonzero;"/>
                        <path d="M246,114L354,114L354,113.965C355.613,113.926 357.145,113.238 358.238,112.051C359.336,110.867 359.902,109.289 359.812,107.676C356.508,47.246 306.52,-0.047 246,0C242.688,0 240,2.688 240,6L240,108C240,109.59 240.633,111.117 241.758,112.242C242.883,113.367 244.41,114 246,114ZM347.293,102L252,102L252,12.176C301.344,15.043 341.516,52.91 347.293,102Z" style="fill:rgb(252,191,55);fill-rule:nonzero;"/>
                        <path d="M102,228C80.16,228 60.469,241.156 52.109,261.336C43.754,281.512 48.371,304.738 63.816,320.184C79.262,335.629 102.488,340.246 122.664,331.891C142.844,323.531 156,303.84 156,282C155.953,252.195 131.805,228.047 102,228ZM102,324C85.012,324 69.699,313.766 63.195,298.074C56.695,282.379 60.289,264.312 72.301,252.301C84.312,240.289 102.379,236.695 118.074,243.195C133.766,249.699 144,265.012 144,282C143.973,305.184 125.184,323.973 102,324Z" style="fill:rgb(252,191,55);fill-rule:nonzero;"/>
                        <path d="M36,84L96,84.001L96,96.001L36,96.001L36,84Z" style="fill-rule:nonzero;"/>
                        <path d="M36,120L96,120.001L96,132.001L36,132.001L36,120Z" style="fill:rgb(252,191,55);fill-rule:nonzero;"/>
                        <path d="M36,156L96,156.001L96,168.001L36,168.001L36,156Z" style="fill-rule:nonzero;"/>
                        <path d="M36,192L96,192.001L96,204.001L36,204.001L36,192Z" style="fill-rule:nonzero;"/>
                        <path d="M228,276L252,276.001L252,288.001L228,288.001L228,276Z" style="fill-rule:nonzero;"/>
                        <path d="M264,276L360,276.001L360,288.001L264,288.001L264,276Z" style="fill-rule:nonzero;"/>
                        <path d="M228,312L252,312.001L252,324.001L228,324.001L228,312Z" style="fill:rgb(252,191,55);fill-rule:nonzero;"/>
                        <path d="M264,312L360,312.001L360,324.001L264,324.001L264,312Z" style="fill:rgb(252,191,55);fill-rule:nonzero;"/>
                        <path d="M228,348L252,348.001L252,360.001L228,360.001L228,348Z" style="fill-rule:nonzero;"/>
                        <path d="M264,348L360,348.001L360,360.001L264,360.001L264,348Z" style="fill-rule:nonzero;"/>
                    </g>
                </g>
            </g>
        </g>
    </g>
</svg>
