<?xml version="1.0" encoding="UTF-8" standalone="no"?><!DOCTYPE svg PUBLIC "-//W3C//DTD SVG 1.1//EN" "http://www.w3.org/Graphics/SVG/1.1/DTD/svg11.dtd"><svg width="100%" height="100%" viewBox="0 0 361 361" version="1.1" xmlns="http://www.w3.org/2000/svg" xmlns:xlink="http://www.w3.org/1999/xlink" xml:space="preserve" xmlns:serif="http://www.serif.com/" style="fill-rule:evenodd;clip-rule:evenodd;stroke-linejoin:round;stroke-miterlimit:2;"><rect id="_15" serif:id="15" x="0.667" y="0.657" width="360" height="360" style="fill:none;"/><g><g><path d="M288.942,236.477c-42.224,42.224 -110.683,42.223 -152.906,-0.002c-42.224,-42.225 -42.223,-110.683 0.002,-152.906c42.224,-42.222 110.681,-42.222 152.904,-0c42.156,42.253 42.156,110.655 0,152.908Zm-175.398,40.469l-62.966,62.965c-2.483,2.483 -6.509,2.483 -8.993,0l-8.993,-8.999c-2.478,-2.483 -2.478,-6.504 0,-8.987l62.965,-62.965c2.516,-2.405 6.479,-2.405 8.994,-0l8.993,8.999c2.479,2.484 2.479,6.504 0,8.987Zm184.385,-202.37c-47.094,-47.225 -123.554,-47.331 -170.778,-0.237c-45.567,45.439 -47.496,118.63 -4.385,166.406l-9.222,9.222c-7.451,-7.452 -19.532,-7.453 -26.984,-0.002c-0.001,0.001 -0.002,0.002 -0.003,0.002l-62.964,62.965c-7.451,7.45 -7.452,19.531 -0.002,26.984c0,0.001 0.001,0.001 0.002,0.001l8.993,8.994c7.451,7.449 19.528,7.449 26.979,-0l62.966,-62.965c7.452,-7.45 7.453,-19.531 0.002,-26.984c-0.001,-0 -0.001,-0.001 -0.002,-0.002l9.222,-9.222c49.481,44.717 125.844,40.855 170.561,-8.627c43.193,-47.795 41.263,-121.08 -4.385,-166.535Z" style="fill:#0a050b;fill-rule:nonzero;"/><path d="M279.943,92.562l-8.993,8.993c32.233,32.312 32.233,84.618 -0,116.929l8.993,8.994c37.203,-37.278 37.203,-97.638 -0,-134.916Z" style="fill:#0a050b;fill-rule:nonzero;"/><g><clipPath id="_clip1"><rect x="135.853" y="88.158" width="132.891" height="117.568"/></clipPath><g clip-path="url(#_clip1)"><path d="M260.724,197.151c-0.168,0.291 -0.567,0.779 -1.35,0.779l-114.151,-0c-0.783,-0 -1.182,-0.488 -1.35,-0.779c-0.168,-0.292 -0.392,-0.882 0,-1.56l57.075,-98.857c0.392,-0.678 1.014,-0.78 1.35,-0.78c0.337,0 0.959,0.102 1.351,0.78l57.075,98.857c0.392,0.678 0.168,1.268 0,1.56Zm6.752,-5.458l-57.075,-98.857c-1.691,-2.929 -4.72,-4.678 -8.103,-4.678c-3.382,0 -6.411,1.749 -8.102,4.678l-57.075,98.857c-1.691,2.929 -1.691,6.426 0,9.356c1.691,2.929 4.72,4.677 8.102,4.677l114.151,0c3.382,0 6.411,-1.748 8.102,-4.677c1.691,-2.93 1.691,-6.427 -0,-9.356Z" style="fill:#f9ba48;fill-rule:nonzero;stroke:#f9ba48;stroke-width:2px;"/><rect x="198.402" y="123.607" width="7.796" height="41.58" style="fill:#f9ba48;fill-rule:nonzero;stroke:#f9ba48;stroke-width:2px;"/><path d="M202.3,172.983c2.871,0 5.197,2.327 5.197,5.197c0,2.871 -2.326,5.198 -5.197,5.198c-2.871,-0 -5.197,-2.327 -5.197,-5.198c-0,-2.87 2.326,-5.197 5.197,-5.197Z" style="fill:#f9ba48;fill-rule:nonzero;stroke:#f9ba48;stroke-width:2px;"/></g></g></g></g></svg>