<?xml version="1.0" encoding="UTF-8" standalone="no"?>
<!DOCTYPE svg PUBLIC "-//W3C//DTD SVG 1.1//EN" "http://www.w3.org/Graphics/SVG/1.1/DTD/svg11.dtd">
<svg width="100%" height="100%" viewBox="0 0 360 361" version="1.1" xmlns="http://www.w3.org/2000/svg" xmlns:xlink="http://www.w3.org/1999/xlink" xml:space="preserve" xmlns:serif="http://www.serif.com/" style="fill-rule:evenodd;clip-rule:evenodd;stroke-linejoin:round;stroke-miterlimit:2;">
    <g transform="matrix(1,0,0,1,-892,-418)">
        <g id="_6" serif:id="6" transform="matrix(1,0,0,1,892,418.667)">
            <rect x="0" y="0" width="360" height="360" style="fill:none;"/>
            <g transform="matrix(0.678058,0,0,0.678058,50,3.47818)">
                <path d="M295.564,26.605L358.135,89.176L296.081,89.176C295.796,89.176 295.564,88.945 295.564,88.659L295.564,26.605ZM376.242,121.24C372.099,121.24 368.742,124.597 368.742,128.74L368.742,497.482C368.742,497.767 368.511,497.999 368.225,497.999L15.516,497.999C15.231,497.999 14.999,497.768 14.999,497.482L14.999,16.516C14.999,16.231 15.23,15.999 15.516,15.999L280.564,15.999L280.564,88.66C280.564,97.216 287.525,104.177 296.081,104.177L376.242,104.177C379.275,104.177 382.011,102.35 383.171,99.547C384.332,96.744 383.691,93.519 381.546,91.373L293.368,3.195C293.305,3.132 293.241,3.071 293.176,3.01C293.175,3.008 293.173,3.007 293.172,3.006C293.168,3.002 293.165,2.999 293.161,2.996C293.158,2.993 293.155,2.99 293.152,2.988C293.15,2.986 293.148,2.984 293.146,2.982C293.142,2.978 293.137,2.974 293.132,2.969L293.131,2.968C291.807,1.754 290.045,1.009 288.11,0.997L15.516,0.997C6.961,0.999 0,7.96 0,16.516L0,497.483C0,506.039 6.961,513 15.517,513L368.226,513C376.782,513 383.743,506.039 383.743,497.483L383.743,128.74C383.742,124.598 380.385,121.24 376.242,121.24Z" style="fill:rgb(10,5,11);fill-rule:nonzero;"/>
            </g>
            <g transform="matrix(0.678058,0,0,0.678058,50,3.47818)">
                <path d="M271.516,321.645L271.516,288.548L320.645,288.548L320.645,321.645L271.516,321.645ZM63.097,288.548L192.388,288.548L192.388,321.645L63.097,321.645L63.097,288.548ZM192.388,192.353L192.388,225.45L63.097,225.45L63.097,192.353L192.388,192.353ZM320.645,225.45L271.516,225.45L271.516,192.353L320.645,192.353L320.645,225.45ZM271.516,240.45L320.645,240.45L320.645,273.548L271.516,273.548L271.516,240.45ZM207.388,225.45L207.388,192.353L256.517,192.353L256.517,225.45L207.388,225.45ZM63.097,240.45L192.388,240.45L192.388,273.548L63.097,273.548L63.097,240.45ZM256.515,288.548L256.515,321.645L207.387,321.645L207.387,288.548L256.515,288.548ZM207.388,273.548L207.388,240.45L256.517,240.45L256.517,273.548L207.388,273.548ZM335.645,184.853C335.645,180.71 332.288,177.353 328.145,177.353L55.597,177.353C51.454,177.353 48.097,180.71 48.097,184.853L48.097,329.144C48.097,333.287 51.454,336.644 55.597,336.644L328.146,336.644C332.289,336.644 335.646,333.287 335.646,329.144L335.646,184.853L335.645,184.853Z" style="fill:rgb(10,5,11);fill-rule:nonzero;"/>
            </g>
            <g transform="matrix(0.678058,0,0,0.678058,50,3.47818)">
                <path d="M224.452,409.306C224.452,427.271 209.836,441.886 191.871,441.886C173.906,441.886 159.29,427.271 159.29,409.306C159.29,391.341 173.906,376.725 191.871,376.725C209.836,376.725 224.452,391.341 224.452,409.306ZM144.29,409.306C144.29,435.541 165.635,456.886 191.871,456.886C218.107,456.886 239.452,435.541 239.452,409.306C239.452,383.07 218.107,361.725 191.871,361.725C165.635,361.725 144.29,383.069 144.29,409.306Z" style="fill:rgb(10,5,11);fill-rule:nonzero;"/>
            </g>
            <g transform="matrix(0.678058,0,0,0.678058,50,3.47818)">
                <path d="M176.354,409.306C176.354,417.862 183.315,424.822 191.871,424.822C200.427,424.822 207.388,417.862 207.388,409.306C207.388,400.75 200.427,393.789 191.871,393.789C183.315,393.789 176.354,400.75 176.354,409.306Z" style="fill:rgb(252,191,55);fill-rule:nonzero;"/>
            </g>
            <g transform="matrix(0.678058,0,0,0.678058,50,3.47818)">
                <path d="M119.725,385.773L55.596,385.773C51.453,385.773 48.096,389.13 48.096,393.273C48.096,397.416 51.453,400.773 55.596,400.773L119.725,400.773C123.868,400.773 127.225,397.416 127.225,393.273C127.225,389.13 123.868,385.773 119.725,385.773Z" style="fill:rgb(10,5,11);fill-rule:nonzero;"/>
            </g>
            <g transform="matrix(0.678058,0,0,0.678058,50,3.47818)">
                <path d="M119.725,417.838L71.628,417.838C67.485,417.838 64.128,421.195 64.128,425.338C64.128,429.481 67.485,432.838 71.628,432.838L119.725,432.838C123.868,432.838 127.225,429.481 127.225,425.338C127.225,421.195 123.868,417.838 119.725,417.838Z" style="fill:rgb(10,5,11);fill-rule:nonzero;"/>
            </g>
            <g transform="matrix(0.678058,0,0,0.678058,50,3.47818)">
                <path d="M320.645,425.338C320.645,425.622 320.414,425.854 320.128,425.854L272.031,425.854C271.747,425.854 271.515,425.623 271.515,425.338L271.515,393.274C271.515,392.989 271.746,392.757 272.031,392.757L320.128,392.757C320.413,392.757 320.645,392.988 320.645,393.274L320.645,425.338ZM320.129,377.757L272.032,377.757C263.476,377.757 256.515,384.718 256.515,393.274L256.515,425.338C256.515,433.894 263.476,440.854 272.032,440.854L320.129,440.854C328.685,440.854 335.646,433.894 335.646,425.338L335.646,393.274C335.645,384.718 328.684,377.757 320.129,377.757Z" style="fill:rgb(252,191,55);fill-rule:nonzero;"/>
            </g>
            <g transform="matrix(0.409624,0,0,0.678058,120.732,3.47818)">
                <path d="M231.95,72.112C236.093,72.112 239.45,68.755 239.45,64.612C239.45,60.469 236.093,57.112 231.95,57.112L215.921,57.112C211.778,57.112 208.421,60.469 208.421,64.612C208.421,68.755 211.778,72.112 215.921,72.112L231.95,72.112Z" style="fill:rgb(10,5,11);fill-rule:nonzero;"/>
            </g>
            <g transform="matrix(0.409624,0,0,0.678058,120.732,3.47818)">
                <path d="M151.79,72.112L183.854,72.112C187.997,72.112 191.354,68.755 191.354,64.612C191.354,60.469 187.997,57.112 183.854,57.112L151.79,57.112C147.647,57.112 144.29,60.469 144.29,64.612C144.29,68.755 147.647,72.112 151.79,72.112Z" style="fill:rgb(10,5,11);fill-rule:nonzero;"/>
            </g>
            <g transform="matrix(0.409624,0,0,0.678058,120.732,3.47818)">
                <path d="M151.79,104.177L256,104.177C260.143,104.177 263.5,100.82 263.5,96.677C263.5,92.534 260.143,89.177 256,89.177L151.79,89.177C147.647,89.177 144.29,92.534 144.29,96.677C144.29,100.82 147.647,104.177 151.79,104.177Z" style="fill:rgb(10,5,11);fill-rule:nonzero;"/>
            </g>
            <g transform="matrix(0.409624,0,0,0.678058,120.732,3.47818)">
                <path d="M256,121.241L239.968,121.241C235.825,121.241 232.468,124.598 232.468,128.741C232.468,132.884 235.825,136.241 239.968,136.241L256,136.241C260.143,136.241 263.5,132.884 263.5,128.741C263.5,124.598 260.142,121.241 256,121.241Z" style="fill:rgb(252,191,55);fill-rule:nonzero;"/>
            </g>
            <g transform="matrix(0.409624,0,0,0.678058,120.732,3.47818)">
                <path d="M151.79,136.241L207.903,136.241C212.046,136.241 215.403,132.884 215.403,128.741C215.403,124.598 212.046,121.241 207.903,121.241L151.79,121.241C147.647,121.241 144.29,124.598 144.29,128.741C144.29,132.884 147.647,136.241 151.79,136.241Z" style="fill:rgb(252,191,55);fill-rule:nonzero;"/>
            </g>
            <g transform="matrix(4.59618,0,0,6.0604,-6106.72,-2300.02)">
                <g transform="matrix(12,0,0,12,1345.41,395.341)">
                    <path d="M0.055,-0.328C0.055,-0.269 0.057,-0.22 0.062,-0.181C0.067,-0.141 0.077,-0.107 0.093,-0.077C0.109,-0.047 0.134,-0.024 0.167,-0.007C0.2,0.01 0.245,0.018 0.3,0.018C0.329,0.016 0.356,0.007 0.379,-0.009C0.402,-0.024 0.419,-0.05 0.432,-0.086L0.434,-0.086L0.434,-0L0.539,-0L0.539,-0.403L0.306,-0.403L0.306,-0.293L0.403,-0.293C0.403,-0.229 0.395,-0.18 0.379,-0.146C0.363,-0.112 0.337,-0.095 0.3,-0.095C0.277,-0.095 0.259,-0.1 0.246,-0.111C0.232,-0.121 0.222,-0.134 0.215,-0.151C0.208,-0.167 0.204,-0.184 0.202,-0.201C0.2,-0.218 0.199,-0.237 0.199,-0.258L0.199,-0.466C0.199,-0.494 0.2,-0.519 0.202,-0.54C0.204,-0.561 0.208,-0.58 0.215,-0.598C0.222,-0.615 0.232,-0.629 0.246,-0.64C0.259,-0.65 0.277,-0.655 0.3,-0.655C0.323,-0.654 0.341,-0.65 0.355,-0.643C0.368,-0.636 0.378,-0.626 0.385,-0.614C0.392,-0.601 0.396,-0.588 0.398,-0.573C0.4,-0.558 0.401,-0.538 0.402,-0.515L0.542,-0.515L0.542,-0.533C0.541,-0.566 0.539,-0.59 0.535,-0.606C0.52,-0.667 0.493,-0.71 0.455,-0.733C0.417,-0.755 0.365,-0.767 0.3,-0.768C0.246,-0.768 0.203,-0.76 0.17,-0.744C0.137,-0.728 0.113,-0.706 0.098,-0.677C0.082,-0.648 0.071,-0.615 0.066,-0.578C0.061,-0.541 0.057,-0.493 0.055,-0.435L0.055,-0.328Z" style="fill-rule:nonzero;"/>
                </g>
                <g transform="matrix(12,0,0,12,1352.74,395.341)">
                    <path d="M0.489,-0.522L0.489,-0.53C0.489,-0.559 0.487,-0.585 0.484,-0.609C0.481,-0.633 0.472,-0.657 0.459,-0.682C0.445,-0.707 0.423,-0.727 0.393,-0.744C0.362,-0.76 0.322,-0.768 0.271,-0.768C0.198,-0.768 0.143,-0.751 0.106,-0.718C0.069,-0.684 0.051,-0.635 0.051,-0.57C0.051,-0.529 0.063,-0.49 0.087,-0.455C0.104,-0.433 0.124,-0.413 0.146,-0.396C0.167,-0.379 0.196,-0.358 0.232,-0.335C0.267,-0.312 0.292,-0.295 0.308,-0.282C0.327,-0.269 0.341,-0.255 0.35,-0.239C0.359,-0.223 0.364,-0.204 0.364,-0.183C0.364,-0.124 0.335,-0.095 0.277,-0.095C0.246,-0.095 0.223,-0.106 0.21,-0.127C0.196,-0.148 0.189,-0.18 0.189,-0.221L0.189,-0.265L0.049,-0.265L0.049,-0.21C0.049,-0.175 0.053,-0.144 0.062,-0.117C0.07,-0.089 0.083,-0.065 0.101,-0.045C0.119,-0.025 0.143,-0.01 0.172,0.001C0.201,0.012 0.236,0.018 0.277,0.018C0.347,0.018 0.403,-0.001 0.445,-0.038C0.487,-0.075 0.508,-0.129 0.508,-0.198C0.508,-0.231 0.503,-0.26 0.494,-0.284C0.485,-0.309 0.468,-0.332 0.445,-0.355C0.436,-0.364 0.424,-0.375 0.408,-0.386C0.394,-0.397 0.379,-0.408 0.364,-0.419C0.349,-0.429 0.335,-0.439 0.321,-0.448C0.307,-0.457 0.292,-0.467 0.275,-0.478L0.273,-0.479C0.246,-0.497 0.226,-0.513 0.214,-0.527C0.201,-0.54 0.195,-0.56 0.195,-0.585C0.195,-0.61 0.202,-0.627 0.215,-0.639C0.228,-0.65 0.247,-0.655 0.272,-0.655C0.305,-0.655 0.327,-0.644 0.338,-0.621C0.349,-0.598 0.354,-0.565 0.354,-0.522L0.489,-0.522Z" style="fill-rule:nonzero;"/>
                </g>
                <g transform="matrix(12,0,0,12,1359.42,395.341)">
                    <path d="M0.017,-0.64L0.181,-0.64L0.181,-0L0.321,-0L0.321,-0.64L0.484,-0.64L0.484,-0.75L0.017,-0.75L0.017,-0.64Z" style="fill-rule:nonzero;"/>
                </g>
            </g>
        </g>
    </g>
</svg>
