<?xml version="1.0" encoding="UTF-8" standalone="no"?>
<!DOCTYPE svg PUBLIC "-//W3C//DTD SVG 1.1//EN" "http://www.w3.org/Graphics/SVG/1.1/DTD/svg11.dtd">
<svg width="100%" height="100%" viewBox="0 0 360 361" version="1.1" xmlns="http://www.w3.org/2000/svg" xmlns:xlink="http://www.w3.org/1999/xlink" xml:space="preserve" xmlns:serif="http://www.serif.com/" style="fill-rule:evenodd;clip-rule:evenodd;stroke-linejoin:round;stroke-miterlimit:2;">
    <g transform="matrix(1,0,0,1,-892,-1262)">
        <g id="_12" serif:id="12" transform="matrix(1,0,0,1,892,1262.19)">
            <rect x="0" y="0" width="360" height="360" style="fill:none;"/>
            <g transform="matrix(0.925926,0,0,0.970371,16.6667,4.02955)">
                <path d="M222,145L182.484,145L148.242,110.758C147.117,109.633 145.59,109 144,109L90,109C76.75,109.016 66.016,119.75 66,133L66,145L30,145C13.438,145.02 0.02,158.438 0,175L0,295C0.02,311.562 13.438,324.98 30,325L102,325L102,331C101.988,340.938 93.938,348.988 84,349C80.688,349 78,351.688 78,355C78,358.312 80.688,361 84,361L168,361C171.312,361 174,358.312 174,355C174,351.688 171.312,349 168,349C158.062,348.988 150.012,340.938 150,331L150,325L222,325C238.562,324.98 251.98,311.562 252,295L252,175C251.98,158.438 238.562,145.02 222,145ZM240,175L240,289L234,289L234,175C233.992,168.375 228.625,163.008 222,163L186,163L186,157L222,157C231.938,157.012 239.988,165.062 240,175ZM150,129.484L165.516,145L150,145L150,129.484ZM78,133C78.008,126.375 83.375,121.008 90,121L138,121L138,151C138,154.312 140.688,157 144,157L174,157L174,253C173.992,259.625 168.625,264.992 162,265L90,265C83.375,264.992 78.008,259.625 78,253L78,133ZM90,277L162,277C175.25,276.984 185.984,266.25 186,253L186,175L222,175L222,289L30,289L30,175L66,175L66,253C66.016,266.25 76.75,276.984 90,277ZM30,157L66,157L66,163L30,163C23.375,163.008 18.008,168.375 18,175L18,289L12,289L12,175C12.012,165.062 20.062,157.012 30,157ZM144.016,349L107.984,349C111.895,343.812 114.008,337.496 114,331L114,325L138,325L138,331C137.992,337.496 140.105,343.812 144.016,349ZM222,313L30,313C22.375,312.992 15.582,308.184 13.031,301L238.969,301C236.418,308.184 229.625,312.992 222,313Z" style="fill-rule:nonzero;"/>
                <path d="M90,133L114,133.001L114,145.001L90,145.001L90,133Z" style="fill-rule:nonzero;"/>
                <path d="M114,163L138,163.001L138,175.001L114,175.001L114,163Z" style="fill-rule:nonzero;"/>
                <path d="M150,163L162,163.001L162,175.001L150,175.001L150,163Z" style="fill-rule:nonzero;"/>
                <path d="M138,187L162,187.001L162,199.001L138,199.001L138,187Z" style="fill-rule:nonzero;"/>
                <path d="M90,187L126,187.001L126,199.001L90,199.001L90,187Z" style="fill:rgb(252,191,55);fill-rule:nonzero;"/>
                <path d="M90,211L114,211.001L114,223.001L90,223.001L90,211Z" style="fill:rgb(252,191,55);fill-rule:nonzero;"/>
                <path d="M126,211L150,211.001L150,223.001L126,223.001L126,211Z" style="fill-rule:nonzero;"/>
                <path d="M132,235L156,235.001L156,247.001L132,247.001L132,235Z" style="fill-rule:nonzero;"/>
                <path d="M329.719,49.457C327.348,26.504 310.656,7.594 288.172,2.391C265.691,-2.812 242.387,6.848 230.176,26.426C222.816,23.77 214.629,24.863 208.227,29.355C201.82,33.848 198.008,41.18 198,49C198,49.684 198.031,50.359 198.09,51.035C181.527,56.84 171.566,73.742 174.512,91.047C177.457,108.348 192.449,121 210,121L324,121C342.77,121 358.391,106.578 359.887,87.867C361.379,69.16 348.25,52.438 329.719,49.457ZM324,109L210,109C202.777,108.996 195.941,105.738 191.391,100.133C186.836,94.527 185.051,87.168 186.523,80.098C188,73.027 192.578,67 198.992,63.684C205.41,60.363 212.977,60.113 219.598,62.996L224.402,51.996C219.859,50.012 214.957,48.992 210,49C210,44.484 212.535,40.352 216.559,38.305C220.586,36.258 225.418,36.645 229.066,39.301C230.512,40.355 232.348,40.711 234.082,40.273C235.816,39.832 237.262,38.645 238.027,37.027C246.437,19.27 266.031,9.715 285.203,14.023C304.375,18.332 317.996,35.352 318,55C318.012,60.398 316.973,65.746 314.949,70.75L326.07,75.25C327.832,70.895 329.012,66.324 329.578,61.66C341.414,64.488 349.258,75.727 347.836,87.812C346.41,99.895 336.168,109 324,109Z" style="fill:rgb(252,191,55);fill-rule:nonzero;"/>
                <path d="M126,55L147.516,55L139.758,62.758L148.242,71.242L166.242,53.242C168.586,50.898 168.586,47.102 166.242,44.758L148.242,26.758L139.758,35.242L147.516,43L120,43C116.688,43 114,45.688 114,49L114,67L126,67L126,55Z" style="fill-rule:nonzero;"/>
                <path d="M114,91L126,91.001L126,103.001L114,103.001L114,91Z" style="fill-rule:nonzero;"/>
                <path d="M114,73L126,73.001L126,85.001L114,85.001L114,73Z" style="fill-rule:nonzero;"/>
            </g>
        </g>
    </g>
</svg>
