<?xml version="1.0" encoding="UTF-8" standalone="no"?>
<!DOCTYPE svg PUBLIC "-//W3C//DTD SVG 1.1//EN" "http://www.w3.org/Graphics/SVG/1.1/DTD/svg11.dtd">
<svg width="100%" height="100%" viewBox="0 0 200 200" version="1.1" xmlns="http://www.w3.org/2000/svg" xmlns:xlink="http://www.w3.org/1999/xlink" xml:space="preserve" xmlns:serif="http://www.serif.com/" style="fill-rule:evenodd;clip-rule:evenodd;stroke-linejoin:round;stroke-miterlimit:2;">
    <g transform="matrix(1,0,0,1,-7943.34,-4701.57)">
        <g transform="matrix(0.520563,0,0,0.488894,3808.33,2403)">
            <rect x="7943.35" y="4701.57" width="384.199" height="409.087" style="fill:none;"/>
        </g>
        <g transform="matrix(0.557786,0,0,0.557786,3147.55,2080.6)">
            <g transform="matrix(0.879361,0,0,0.879361,8645.29,4714.6)">
                <path d="M24,120L240,120.001L240,132.001L24,132.001L24,120Z" style="fill-rule:nonzero;"/>
            </g>
            <g transform="matrix(0.879361,0,0,0.879361,8645.29,4714.6)">
                <path d="M24,144L102,144.001L102,156.001L24,156.001L24,144Z" style="fill-rule:nonzero;"/>
            </g>
            <g transform="matrix(0.879361,0,0,0.879361,8645.29,4714.6)">
                <path d="M114,144L126,144.001L126,156.001L114,156.001L114,144Z" style="fill-rule:nonzero;"/>
            </g>
            <g transform="matrix(0.879361,0,0,0.879361,8645.29,4714.6)">
                <path d="M24,168L126,168.001L126,180.001L24,180.001L24,168Z" style="fill-rule:nonzero;"/>
            </g>
            <g transform="matrix(0.879361,0,0,0.879361,8645.29,4714.6)">
                <path d="M24,192L36,192.001L36,204.001L24,204.001L24,192Z" style="fill-rule:nonzero;"/>
            </g>
            <g transform="matrix(0.879361,0,0,0.879361,8645.29,4714.6)">
                <path d="M48,192L126,192.001L126,204.001L48,204.001L48,192Z" style="fill-rule:nonzero;"/>
            </g>
            <g transform="matrix(0.879361,0,0,0.879361,8645.29,4714.6)">
                <path d="M24,216L84,216.001L84,228.001L24,228.001L24,216Z" style="fill-rule:nonzero;"/>
            </g>
            <g transform="matrix(0.879361,0,0,0.879361,8645.29,4714.6)">
                <path d="M264,42L264,0L0,0L0,262.547C0,268.867 2.562,275.051 7.031,279.516L42,314.484L42,372L300,372L300,42L264,42ZM12,12L252,12L252,324L78,324L78,264L12.145,264C12.086,263.516 12,263.035 12,262.547L12,12ZM66,321.328C65.652,321.055 65.285,320.801 64.969,320.484L20.484,276L66,276L66,321.328ZM288,360L54,360L54,326.484L56.484,328.969C60.949,333.438 67.133,336 73.453,336L264,336L264,54L288,54L288,360Z" style="fill-rule:nonzero;"/>
            </g>
            <g transform="matrix(6.6755,0,0,9.13622,-47744.7,-38772.4)">
                <text x="8450.5px" y="4770.2px" style="font-family:'Roboto-Bold', 'Roboto';font-weight:700;font-size:11.029px;fill:rgb(255,198,50);">GSTR</text>
            </g>
            <g transform="matrix(4.82827,0,0,6.60805,-32030.6,-26610.2)">
                <path d="M8456.39,4770.2L8451.03,4770.2L8451.03,4769.17L8453.57,4766.45C8453.94,4766.03 8454.2,4765.68 8454.35,4765.39C8454.51,4765.1 8454.58,4764.83 8454.58,4764.58C8454.58,4764.25 8454.49,4763.98 8454.32,4763.77C8454.14,4763.56 8453.89,4763.46 8453.56,4763.46C8453.2,4763.46 8452.92,4763.58 8452.73,4763.83C8452.54,4764.07 8452.45,4764.4 8452.45,4764.81L8450.92,4764.81L8450.91,4764.78C8450.89,4764.07 8451.12,4763.47 8451.61,4762.98C8452.09,4762.49 8452.74,4762.25 8453.56,4762.25C8454.37,4762.25 8455,4762.46 8455.46,4762.88C8455.92,4763.3 8456.15,4763.86 8456.15,4764.56C8456.15,4765.03 8456.02,4765.47 8455.76,4765.87C8455.5,4766.27 8455.07,4766.79 8454.47,4767.44L8453.08,4768.96L8453.09,4768.99L8456.39,4768.99L8456.39,4770.2Z" style="fill:rgb(255,198,50);fill-rule:nonzero;"/>
                <path d="M8461.77,4768.51L8459.01,4768.51L8458.48,4770.2L8456.89,4770.2L8459.59,4762.36L8461.2,4762.36L8463.89,4770.2L8462.3,4770.2L8461.77,4768.51ZM8459.4,4767.28L8461.38,4767.28L8460.41,4764.2L8460.38,4764.2L8459.4,4767.28Z" style="fill:rgb(255,198,50);fill-rule:nonzero;"/>
            </g>
            <g transform="matrix(1.43112,4.6113,-12.441,3.86106,56005.4,-52459.1)">
                <path d="M8451.95,4770.87L8450.42,4770.87L8453.3,4762.36L8454.83,4762.36L8451.95,4770.87Z" style="fill:rgb(255,198,50);fill-rule:nonzero;"/>
            </g>
            <g transform="matrix(4.82827,0,0,6.60805,-32027.4,-26532.5)">
                <path d="M8456.39,4770.2L8451.03,4770.2L8451.03,4769.17L8453.57,4766.45C8453.94,4766.03 8454.2,4765.68 8454.35,4765.39C8454.51,4765.1 8454.58,4764.83 8454.58,4764.58C8454.58,4764.25 8454.49,4763.98 8454.32,4763.77C8454.14,4763.56 8453.89,4763.46 8453.56,4763.46C8453.2,4763.46 8452.92,4763.58 8452.73,4763.83C8452.54,4764.07 8452.45,4764.4 8452.45,4764.81L8450.92,4764.81L8450.91,4764.78C8450.89,4764.07 8451.12,4763.47 8451.61,4762.98C8452.09,4762.49 8452.74,4762.25 8453.56,4762.25C8454.37,4762.25 8455,4762.46 8455.46,4762.88C8455.92,4763.3 8456.15,4763.86 8456.15,4764.56C8456.15,4765.03 8456.02,4765.47 8455.76,4765.87C8455.5,4766.27 8455.07,4766.79 8454.47,4767.44L8453.08,4768.96L8453.09,4768.99L8456.39,4768.99L8456.39,4770.2Z" style="fill:rgb(255,198,50);fill-rule:nonzero;"/>
                <path d="M8457.56,4770.2L8457.56,4762.36L8460.21,4762.36C8461.13,4762.36 8461.85,4762.54 8462.37,4762.9C8462.89,4763.26 8463.14,4763.79 8463.14,4764.51C8463.14,4764.87 8463.05,4765.19 8462.86,4765.48C8462.66,4765.77 8462.39,4765.98 8462.02,4766.12C8462.49,4766.22 8462.84,4766.44 8463.08,4766.77C8463.31,4767.1 8463.43,4767.48 8463.43,4767.92C8463.43,4768.67 8463.18,4769.23 8462.69,4769.62C8462.19,4770.01 8461.49,4770.2 8460.58,4770.2L8457.56,4770.2ZM8459.13,4766.73L8459.13,4768.99L8460.58,4768.99C8461,4768.99 8461.32,4768.9 8461.53,4768.72C8461.75,4768.54 8461.86,4768.27 8461.86,4767.91C8461.86,4767.53 8461.77,4767.24 8461.58,4767.04C8461.4,4766.83 8461.1,4766.73 8460.7,4766.73L8459.13,4766.73ZM8459.13,4765.65L8460.26,4765.65C8460.68,4765.65 8461.01,4765.56 8461.23,4765.39C8461.46,4765.21 8461.57,4764.96 8461.57,4764.63C8461.57,4764.27 8461.46,4764 8461.23,4763.83C8461,4763.66 8460.66,4763.57 8460.21,4763.57L8459.13,4763.57L8459.13,4765.65Z" style="fill:rgb(255,198,50);fill-rule:nonzero;"/>
            </g>
        </g>
    </g>
</svg>
