<?xml version="1.0" encoding="UTF-8" standalone="no"?>
<!DOCTYPE svg PUBLIC "-//W3C//DTD SVG 1.1//EN" "http://www.w3.org/Graphics/SVG/1.1/DTD/svg11.dtd">
<svg width="100%" height="100%" viewBox="0 0 360 361" version="1.1" xmlns="http://www.w3.org/2000/svg" xmlns:xlink="http://www.w3.org/1999/xlink" xml:space="preserve" xmlns:serif="http://www.serif.com/" style="fill-rule:evenodd;clip-rule:evenodd;stroke-linejoin:round;stroke-miterlimit:2;">
    <g transform="matrix(1,0,0,1,0,-843)">
        <g id="_7" serif:id="7" transform="matrix(1,0,0,1,0,843.52)">
            <rect x="0" y="0" width="360" height="360" style="fill:none;"/>
            <g transform="matrix(0.698925,0,0,0.698925,4.66667,8.66666)">
                <path d="M473.312,48.105L385.91,30.625L349.734,191.391L176,156.641L176,0L52.688,0L0,52.688L0,224L88.16,224L65.457,328.457C55.504,330.281 47.328,337.727 44.793,347.84L40.734,364.062C40.246,366.023 40,368.039 40,370.062C40,382 48.512,392.23 60.246,394.406L256.344,430.719C259.742,467.281 290.566,496 328,496C367.695,496 400,463.703 400,424C400,412.383 397.168,401.441 392.266,391.719L432.434,214.969L406.809,164.121L422.414,95.84L460.465,103.449C462.289,103.816 464.152,104 466,104L467.777,104C483.336,104 496,91.336 496,75.777C496,62.367 486.457,50.734 473.312,48.105ZM212.801,180.32L237.062,185.176L226.336,222.711L202.07,217.855L212.801,180.32ZM252.801,188.32L277.062,193.176L266.336,230.711L242.07,225.855L252.801,188.32ZM48,27.312L48,48L27.312,48L48,27.312ZM16,64L64,64L64,16L160,16L160,208L16,208L16,64ZM176,224L176,172.961L197.062,177.176L181.93,230.152L277.664,249.305L292.801,196.32L346.223,207.008L313.258,353.535C301.062,356.09 290.031,361.762 280.945,369.633L81.543,329.754L104.535,224L176,224ZM56,370.062C56,369.344 56.09,368.633 56.266,367.938L60.32,351.719C61.625,346.527 67.016,343.16 72.199,344.199L268.543,383.473C262.336,392.543 258.207,403.121 256.703,414.52L63.16,378.68C59.008,377.902 56,374.281 56,370.062ZM328,480C297.121,480 272,454.871 272,424C272,393.129 297.121,368 328,368C358.879,368 384,393.129 384,424C384,454.871 358.879,480 328,480ZM361.922,360.52L372.406,314.641L392.473,318.648L379.855,374.168C374.633,368.742 368.602,364.113 361.922,360.52ZM389.191,241.191L409.16,245.184L396.008,303.039L375.969,299.031L389.191,241.191ZM415.559,217.031L412.703,229.586L392.754,225.594L401.215,188.574L415.559,217.031ZM346.855,354.594C341.449,353.121 335.809,352.266 329.977,352.105L389.129,89.184L406.711,92.703L346.855,354.594ZM467.777,88L466,88C465.191,88 464.391,87.922 463.602,87.762L392.641,73.566L398.078,49.375L470.16,63.793C475.863,64.938 480,69.977 480,75.777C480,82.512 474.512,88 467.777,88Z" style="fill-rule:nonzero;"/>
            </g>
            <g transform="matrix(0.698925,0,0,0.698925,4.66667,8.66666)">
                <path d="M112,176L48,176L48,104L72,104L72,88L32,88L32,192L128,192L128,144L112,144L112,176Z" style="fill:rgb(252,191,55);fill-rule:nonzero;"/>
            </g>
            <g transform="matrix(0.698925,0,0,0.698925,4.66667,8.66666)">
                <path d="M80,132.688L69.656,122.344L58.344,133.656L80,155.312L141.656,93.656L130.343,82.344L80,132.688Z" style="fill:rgb(252,191,55);fill-rule:nonzero;"/>
            </g>
            <g transform="matrix(0.698925,0,0,0.698925,4.66667,8.66666)">
                <path d="M328,384C305.945,384 288,401.945 288,424C288,446.055 305.945,464 328,464C350.055,464 368,446.055 368,424C368,401.945 350.055,384 328,384ZM328,448C314.77,448 304,437.23 304,424C304,410.77 314.77,400 328,400C341.23,400 352,410.77 352,424C352,437.23 341.23,448 328,448Z" style="fill:rgb(252,191,55);fill-rule:nonzero;"/>
            </g>
        </g>
    </g>
</svg>
