<?xml version="1.0" encoding="UTF-8" standalone="no"?><!DOCTYPE svg PUBLIC "-//W3C//DTD SVG 1.1//EN" "http://www.w3.org/Graphics/SVG/1.1/DTD/svg11.dtd"><svg width="100%" height="100%" viewBox="0 0 360 361" version="1.1" xmlns="http://www.w3.org/2000/svg" xmlns:xlink="http://www.w3.org/1999/xlink" xml:space="preserve" xmlns:serif="http://www.serif.com/" style="fill-rule:evenodd;clip-rule:evenodd;stroke-linejoin:round;stroke-miterlimit:2;"><rect id="_17" serif:id="17" x="-0" y="0.99" width="360" height="360" style="fill:none;"/><g><g><g><clipPath id="_clip1"><rect x="9.199" y="10.189" width="341.934" height="341.933"/></clipPath><g clip-path="url(#_clip1)"><path d="M297.426,213.014l-10.676,-0c-2.948,-0 -5.34,2.391 -5.34,5.34c0,2.945 2.392,5.336 5.34,5.336l10.676,-0c2.948,-0 5.336,-2.391 5.336,-5.336c-0,-2.949 -2.388,-5.34 -5.336,-5.34Z" style="fill-rule:nonzero;"/><path d="M233.375,266.389l-106.75,-0c-8.829,-0 -16.012,7.183 -16.012,16.012c0,8.831 7.183,16.015 16.012,16.015l106.75,0c8.829,0 16.012,-7.184 16.012,-16.015c-0,-8.829 -7.183,-16.012 -16.012,-16.012Zm0,21.352l-106.75,-0c-2.945,-0 -5.34,-2.395 -5.34,-5.34c-0,-2.942 2.395,-5.336 5.34,-5.336l106.75,-0c2.942,-0 5.336,2.394 5.336,5.336c-0,2.945 -2.394,5.34 -5.336,5.34Z" style="fill-rule:nonzero;"/><path d="M67.91,180.99c2.949,0 5.34,-2.391 5.34,-5.34l-0,-90.734l213.5,0l0,90.734c0,2.949 2.388,5.34 5.336,5.34c2.948,0 5.34,-2.391 5.34,-5.34l-0,-90.734c-0,-5.887 -4.79,-10.676 -10.676,-10.676l0,-10.676c0,-5.887 -4.789,-10.675 -10.676,-10.675l0,-10.676c0,-5.883 -4.788,-10.672 -10.676,-10.672l0,-10.676c0,-5.887 -4.788,-10.676 -10.675,-10.676l-149.45,0c-5.886,0 -10.676,4.789 -10.676,10.676l0,10.676c-5.883,0 -10.671,4.789 -10.671,10.672l-0,10.676c-5.887,-0 -10.676,4.788 -10.676,10.675l-0,10.676c-5.887,0 -10.676,4.789 -10.676,10.676l0,90.734c0,2.949 2.391,5.34 5.336,5.34Zm37.363,-160.125l149.45,0l-0,10.676l-149.45,0l0,-10.676Zm-10.676,21.348l170.801,-0l0,10.676l-170.801,-0l0,-10.676Zm-10.671,21.351l192.148,0l0,10.676l-192.148,0l-0,-10.676Z" style="fill-rule:nonzero;"/><path d="M350.726,206.169c-0.118,-1.273 -0.391,-2.502 -0.792,-3.674l-20.579,-93.563c-1.307,-7.744 -7.916,-13.344 -15.787,-13.344l-0.13,-0c-2.949,-0 -5.34,2.392 -5.34,5.34c-0,2.948 2.391,5.336 5.34,5.336l0.13,-0c2.642,-0 4.86,1.896 5.271,4.506c0.016,0.104 0.035,0.211 0.059,0.312l17.748,80.694c-0.61,-0.071 -1.229,-0.11 -1.861,-0.11l-309.574,0c-0.629,0 -1.248,0.039 -1.86,0.11l17.748,-80.694c0.022,-0.101 0.042,-0.208 0.058,-0.312c0.414,-2.61 2.63,-4.506 5.275,-4.506l0.13,-0c2.949,-0 5.336,-2.388 5.336,-5.336c0,-2.948 -2.387,-5.34 -5.336,-5.34l-0.13,-0c-7.871,-0 -14.484,5.6 -15.79,13.344l-20.576,93.563c-0.404,1.172 -0.675,2.401 -0.792,3.674c-0.058,0.369 -0.082,0.73 -0.065,1.089c-0.003,0.14 -0.01,0.28 -0.01,0.42l-0,128.098c-0,8.831 7.183,16.015 16.012,16.015l309.574,0c8.832,0 16.016,-7.184 16.016,-16.015l-0,-128.098c-0,-0.14 -0.007,-0.28 -0.013,-0.42c0.016,-0.359 -0.004,-0.72 -0.062,-1.089Zm-10.601,129.607c0,2.945 -2.394,5.34 -5.34,5.34l-309.574,-0c-2.942,-0 -5.336,-2.395 -5.336,-5.34l-0,-106.751c-0,-2.941 2.394,-5.335 5.336,-5.335l240.187,-0c2.949,-0 5.337,-2.391 5.337,-5.336c0,-2.949 -2.388,-5.34 -5.337,-5.34l-240.187,-0c-1.87,-0 -3.665,0.326 -5.336,0.919l-0,-6.255c-0,-0.039 0.003,-0.075 0.007,-0.114l0.446,-2.03c0.827,-1.877 2.703,-3.196 4.883,-3.196l309.577,-0c2.181,-0 4.057,1.319 4.884,3.196l0.446,2.03c0.004,0.039 0.007,0.075 0.007,0.114l0,6.255c-1.671,-0.593 -3.466,-0.919 -5.337,-0.919l-16.011,-0c-2.948,-0 -5.339,2.391 -5.339,5.34c-0,2.945 2.391,5.336 5.339,5.336l16.011,-0c2.943,-0 5.337,2.394 5.337,5.335l0,106.751Z" style="fill-rule:nonzero;"/><path d="M163.988,138.291c2.945,0 5.336,-2.392 5.336,-5.34c0,-2.948 -2.391,-5.336 -5.336,-5.336l-42.703,0c-2.945,0 -5.336,2.388 -5.336,5.336c0,2.948 2.391,5.34 5.336,5.34l42.703,0Z" style="fill:#f9ba48;fill-rule:nonzero;"/><path d="M201.348,111.604c-0,-2.949 -2.388,-5.34 -5.336,-5.34l-74.727,-0c-2.945,-0 -5.336,2.391 -5.336,5.34c0,2.944 2.391,5.336 5.336,5.336l74.727,-0c2.948,-0 5.336,-2.392 5.336,-5.336Z" style="fill:#f9ba48;fill-rule:nonzero;"/><path d="M94.597,116.94l5.34,-0c2.949,-0 5.336,-2.392 5.336,-5.336c0,-2.949 -2.387,-5.34 -5.336,-5.34l-5.34,-0c-2.944,-0 -5.335,2.391 -5.335,5.34c-0,2.944 2.391,5.336 5.335,5.336Z" style="fill:#f9ba48;fill-rule:nonzero;"/><path d="M94.597,138.291l5.34,0c2.949,0 5.336,-2.392 5.336,-5.34c0,-2.948 -2.387,-5.336 -5.336,-5.336l-5.34,0c-2.944,0 -5.335,2.388 -5.335,5.336c-0,2.948 2.391,5.34 5.335,5.34Z" style="fill:#f9ba48;fill-rule:nonzero;"/><path d="M94.597,170.315c-2.944,-0 -5.335,2.391 -5.335,5.335c-0,2.949 2.391,5.34 5.335,5.34l48.04,0c2.948,0 5.335,-2.391 5.335,-5.34c0,-2.944 -2.387,-5.335 -5.335,-5.335l-48.04,-0Z" style="fill:#f9ba48;fill-rule:nonzero;"/><path d="M185.336,154.303c-0,-2.948 -2.388,-5.34 -5.336,-5.34l-85.403,-0c-2.944,-0 -5.335,2.392 -5.335,5.34c-0,2.948 2.391,5.336 5.335,5.336l85.403,-0c2.948,-0 5.336,-2.388 5.336,-5.336Z" style="fill:#f9ba48;fill-rule:nonzero;"/><path d="M265.398,148.963l-26.687,-0c-2.948,-0 -5.336,2.392 -5.336,5.34c0,2.948 2.388,5.336 5.336,5.336l26.687,-0c2.949,-0 5.34,-2.388 5.34,-5.336c0,-2.948 -2.391,-5.34 -5.34,-5.34Z" style="fill:#f9ba48;fill-rule:nonzero;"/><path d="M201.348,180.99l64.05,0c2.949,0 5.34,-2.391 5.34,-5.34c0,-2.944 -2.391,-5.335 -5.34,-5.335l-64.05,-0c-2.945,-0 -5.336,2.391 -5.336,5.335c-0,2.949 2.391,5.34 5.336,5.34Z" style="fill:#f9ba48;fill-rule:nonzero;"/></g></g></g></g></svg>